# xmcd
#
# Track frame offsets: 
#        150
#        19976
#        39252
#        63881
#        81292
#        98392
#        118603
#        135253
#        159480
#        180257
#        206645
#        234144
#        249906
#        269267
#
# Disc length: 3783 seconds
#
# Revision: 4
# Processed by: cddbd v1.5.2PL0 Copyright (c) Steve Scherf et al.
# Submitted via: ExactAudioCopy v1.3
#
DISCID=9f0ec50e
DTITLE=European Jazz Trio - Best Of Classics II [Disc 1]
DYEAR=2008
DGENRE=Jazz
TTITLE0=Mozart: Piano Concert 23
TTITLE1=Debussy: Clair de Lune (Suite Bergamasque No.3)
TTITLE2=Chopin: Nocturne F minor
TTITLE3=Schumann: Von Fremden Landern Und Menschen (Kinderszenen Op.15
TTITLE3=1)
TTITLE4=Liszt: La Campanella
TTITLE5=Chopin: 3 Nocturnes No.4 Op.15-1
TTITLE6=unknown: Saltarello
TTITLE7=Badarzewska: The Maiden's Prayer
TTITLE8=Debussy: Reverie
TTITLE9=Prokofiev: Andante (Piano Concerto No.4 Op.53)
TTITLE10=Saint-Saenes: The Swan
TTITLE11=Liszt: Liebestraum No.3
TTITLE12=Rakhmaninov: Piano Concert No.2 C minor Op.18-3
TTITLE13=Ravel: Pavane Pour Une Infante Defunte
EXTD=YEAR: 2008
EXTT0=
EXTT1=
EXTT2=
EXTT3=
EXTT4=
EXTT5=
EXTT6=
EXTT7=
EXTT8=
EXTT9=
EXTT10=
EXTT11=
EXTT12=
EXTT13=
PLAYORDER=
